HIERARCHY
ROOT ui
{
	 OFFSET 0 0 0
	 CHANNELS 3 XPosition YPosition Z Position
	 EndSite
	 {
	 OFFSET 0 -1 0
	 }
}
ROOT li
{
	 OFFSET 0 0 0
	 CHANNELS 3 XPosition YPosition Z Position
	 EndSite
	 {
	 OFFSET 0 -1 0
	 }
}
ROOT ul
{
	 OFFSET 0 0 0
	 CHANNELS 3 XPosition YPosition Z Position
	 EndSite
	 {
	 OFFSET 0 -1 0
	 }
}
ROOT ll
{
	 OFFSET 0 0 0
	 CHANNELS 3 XPosition YPosition Z Position
	 EndSite
	 {
	 OFFSET 0 -1 0
	 }
}
ROOT tt
{
	 OFFSET 0 0 0
	 CHANNELS 3 XPosition YPosition Z Position
	 EndSite
	 {
	 OFFSET 0 -1 0
	 }
}
ROOT tb
{
	 OFFSET 0 0 0
	 CHANNELS 3 XPosition YPosition Z Position
	 EndSite
	 {
	 OFFSET 0 -1 0
	 }
}
ROOT td
{
	 OFFSET 0 0 0
	 CHANNELS 3 XPosition YPosition Z Position
	 EndSite
	 {
	 OFFSET 0 -1 0
	 }
}
ROOT v
{
	 OFFSET 0 0 0
	 CHANNELS 3 XPosition YPosition Z Position
	 EndSite
	 {
	 OFFSET 0 -1 0
	 }
}
ROOT bn
{
	 OFFSET 0 0 0
	 CHANNELS 3 XPosition YPosition Z Position
	 EndSite
	 {
	 OFFSET 0 -1 0
	 }
}
MOTION
Frames: 24
Frame Time: 0.002
-0.002948873996734619	-0.0011209759712219238	0		0.5787173461914062	-2.44678857421875	0		-0.9847763061523438	-0.18775135803222656	0		-0.6455742797851562	-2.2620859375	0		1.6046680908203126	-1.20053125	0		2.849306640625	-0.19737387084960936	0		4.31305712890625	0.39767193603515627	0		6.0376865234375	0.6007052612304687	0		-0.26289453125	5.8686298828125	0		
-0.003098989963531494	-0.0011986390352249146	0		0.6035065307617188	-2.452107666015625	0		-0.9908792724609375	-0.1827671661376953	0		-0.6817145385742187	-2.259816650390625	0		1.6014739990234375	-1.2045877685546875	0		2.86515478515625	-0.19761817932128906	0		4.30784228515625	0.39062158203125	0		6.04177783203125	0.5796617431640625	0		-0.263016357421875	5.86855322265625	0		
-0.017241714477539062	0.003861665964126587	0		0.5653816528320312	-2.44382080078125	0		-0.989157470703125	-0.19185441589355468	0		-0.606939208984375	-2.262603515625	0		1.5962198486328125	-1.2106207275390626	0		2.841877685546875	-0.20648509216308594	0		4.3044619140625	0.37055694580078125	0		6.0416416015625	0.5794835815429688	0		-0.2631790466308594	5.8684814453125	0		
-0.00755898380279541	-0.005301566123962403	0		0.572033203125	-2.454958251953125	0		-0.98535107421875	-0.18795599365234375	0		-0.6702070922851563	-2.26506591796875	0		1.595983154296875	-1.21069677734375	0		2.84442578125	-0.22959501647949218	0		4.2970419921875	0.3505352478027344	0		6.03447509765625	0.6123469848632812	0		-0.24728553771972656	5.8782607421875	0		
-0.003787329912185669	-0.0014017679691314697	0		0.573782470703125	-2.452042236328125	0		-0.9815899658203125	-0.18505099487304688	0		-0.6195452270507813	-2.271612060546875	0		1.611604248046875	-1.221919677734375	0		2.856186279296875	-0.22678677368164063	0		4.30071044921875	0.3434128723144531	0		6.0463212890625	0.5894140625	0		-0.2455593566894531	5.874181640625	0		
0.0029831860065460203	0.005476713180541992	0		0.5775198974609375	-2.447138427734375	0		-0.9678687133789062	-0.18323371887207032	0		-0.6497572631835937	-2.261375732421875	0		1.62027197265625	-1.225069091796875	0		2.843860595703125	-0.22974224853515626	0		4.30429150390625	0.33029632568359374	0		6.03548046875	0.606807373046875	0		-0.26189776611328125	5.8662822265625	0		
0.02159577560424805	-0.0017502779960632325	0		0.5731368408203125	-2.452148681640625	0		-0.9781697387695313	-0.1811769256591797	0		-0.5842094116210937	-2.274048583984375	0		1.60491650390625	-1.2279808349609376	0		2.84732861328125	-0.2518431396484375	0		4.30684912109375	0.3171951599121094	0		6.0352529296875	0.6066610107421875	0		-0.26217935180664065	5.86623876953125	0		
-0.004740534782409668	-0.0015361100435256959	0		0.5707523803710938	-2.455168701171875	0		-0.9785086059570313	-0.18120465087890625	0		-0.6516375122070313	-2.281436279296875	0		1.60456982421875	-1.2280279541015624	0		2.851921875	-0.2589471130371094	0		4.29538037109375	0.3032341003417969	0		6.0350126953125	0.606521484375	0		-0.2775778503417969	5.85535009765625	0		
-0.015005532264709473	0.007535624027252197	0		0.5683599853515625	-2.45717822265625	0		-0.9748333740234375	-0.17825856018066405	0		-0.5820797119140625	-2.289126220703125	0		1.608111083984375	-1.238103759765625	0		2.858394775390625	-0.277062255859375	0		4.30690576171875	0.2900581359863281	0		6.03476220703125	0.6063880615234375	0		-0.2617929382324219	5.8641748046875	0		
-0.009493069648742676	-0.005533246040344239	0		0.5799144897460937	-2.46331103515625	0		-1.079231201171875	-0.181260986328125	0		-0.6424625244140625	-2.2885556640625	0		1.6107647705078125	-1.2351610107421875	0		2.847155029296875	-0.263998046875	0		4.30654638671875	0.29000253295898437	0		6.0402451171875	0.6147770385742187	0		-0.2620959167480469	5.86416552734375	0		
0.02320511817932129	0.0011495150327682495	0		0.5716243896484375	-2.452240966796875	0		-0.9655773315429688	-0.17934495544433593	0		-0.5699082641601563	-2.29425	0		1.6103828125	-1.23517919921875	0		2.862600830078125	-0.2831838073730469	0		4.3141240234375	0.2838761291503906	0		6.0399833984375	0.6146547241210938	0		-0.26140484619140625	5.8631591796875	0		
-0.016101886749267578	0.0075380539894104	0		0.56717724609375	-2.4571962890625	0		-1.0389429931640626	-0.1786154327392578	0		-0.6034290771484375	-2.306910400390625	0		1.6139033203125	-1.245225341796875	0		2.88531591796875	-0.274430419921875	0		4.32650048828125	0.2567082824707031	0		6.04335791015625	0.6317536010742187	0		-0.2616937255859375	5.86317626953125	0		
0.01944943618774414	-0.0017823890447616578	0		0.5917308959960937	-2.46241943359375	0		-0.9722607421875	-0.1742203826904297	0		-0.5619705200195313	-2.32227978515625	0		1.6015250244140624	-1.2451072998046875	0		2.86375	-0.29524362182617186	0		4.334076171875	0.24959304809570312	0		6.0431015625	0.6316409912109375	0		-0.26196636962890624	5.86320654296875	0		
-0.010937129974365235	-0.00545369815826416	0		0.5722640380859375	-2.47020654296875	0		-1.039658203125	-0.1785174102783203	0		-0.5594940185546875	-2.336259765625	0		1.6250474853515624	-1.2563267822265625	0		2.8713759765625	-0.2973298950195313	0		4.3217314453125	0.24967547607421875	0		6.0428544921875	0.631531494140625	0		-0.2622273559570312	5.86224951171875	0		
0.008853433609008789	0.007403030872344971	0		0.5739031982421875	-2.468185791015625	0		-0.9549028930664063	-0.16927101135253905	0		-0.5469303588867187	-2.34232421875	0		1.6187288818359375	-1.2522481689453124	0		2.903995849609375	-0.30165170288085935	0		4.34139111328125	0.24845254516601561	0		6.04401611328125	0.6244702758789062	0		-0.24536662292480468	5.87114013671875	0		
0.00346996808052063	5.140860080718995E-4	0		0.5865070190429688	-2.47126123046875	0		-1.02418017578125	-0.16451959228515625	0		-0.527450439453125	-2.358444091796875	0		1.6554534912109375	-1.245578369140625	0		2.87781103515625	-0.28739706420898437	0		4.3650791015625	0.24819313049316405	0		6.04379248046875	0.6243616943359375	0		-0.26264892578125	5.862373046875	0		
0.018154767990112303	-0.0015587209463119507	0		0.59714599609375	-2.472308349609375	0		-0.9555211181640625	-0.16909445190429687	0		-0.5368858032226562	-2.36727099609375	0		1.6390435791015625	-1.254386474609375	0		2.879392578125	-0.29940774536132814	0		4.3557998046875	0.24925529479980468	0		6.0472197265625	0.6414646606445312	0		-0.262811767578125	5.8624521484375	0		
-0.008117459297180175	-0.001222890019416809	0		0.5688126220703125	-2.47196728515625	0		-0.9557987670898438	-0.16898805236816405	0		-0.5083168640136718	-2.37745751953125	0		1.6596015625	-1.268548583984375	0		2.888091796875	-0.3014841613769531	0		4.35626953125	0.22222149658203125	0		6.0505234375	0.6239616088867187	0		-0.2629300231933594	5.86354150390625	0		
0.013589515686035156	-0.005346309185028076	0		0.6003345336914062	-2.48820361328125	0		-0.95605615234375	-0.16887071228027345	0		-0.5219271850585937	-2.4072236328125	0		1.6513145751953124	-1.2684241943359376	0		2.913692626953125	-0.3157250061035156	0		4.3641494140625	0.2351154327392578	0		6.04684814453125	0.6412152099609375	0		-0.2630330810546875	5.8626396484375	0		
-0.008604714393615723	-0.0010315220355987548	0		0.577095947265625	-2.480896484375	0		-0.9532564697265625	-0.16477235412597657	0		-0.4704710388183594	-2.43161767578125	0		1.6600125732421875	-1.2714617919921876	0		2.897645751953125	-0.29555606079101565	0		4.37592138671875	0.23496754455566407	0		6.0503134765625	0.6565571899414062	0		-0.2630833740234375	5.8637470703125	0		
0.007264348983764648	0.007918766975402832	0		0.5788264770507813	-2.4778271484375	0		-0.9534805297851563	-0.16463360595703125	0		-0.47985650634765625	-2.440405517578125	0		1.65379248046875	-1.2673487548828124	0		2.900269775390625	-0.31057061767578126	0		4.3637109375	0.23505210876464844	0		6.04009814453125	0.6376107177734375	0		-0.2490049285888672	5.87472509765625	0		
-0.009029555320739745	-8.066200017929077E-4	0		0.5744844970703125	-2.482691162109375	0		-0.9536923217773438	-0.16448385620117187	0		-0.4443670349121094	-2.462626708984375	0		1.67742236328125	-1.279526611328125	0		2.92711083984375	-0.30482269287109376	0		4.37058203125	0.24194631958007812	0		6.05421826171875	0.6371005249023437	0		-0.2631133728027344	5.8639892578125	0		
0.01677264404296875	-9.396420121192932E-4	0		0.56325439453125	-2.476479736328125	0		-0.95389501953125	-0.1643234558105469	0		-0.45778463745117187	-2.47535595703125	0		1.657198486328125	-1.277267333984375	0		2.891864990234375	-0.30846145629882815	0		4.37039453125	0.24190591430664063	0		6.05129931640625	0.65428369140625	0		-0.2640787353515625	5.86513330078125	0		
-0.00941646671295166	-5.497729778289795E-4	0		0.56985400390625	-2.48743994140625	0		-0.954092041015625	-0.16415315246582032	0		-0.382447265625	-2.512960693359375	0		1.67184619140625	-1.2883514404296874	0		2.9076611328125	-0.30860601806640625	0		4.37514404296875	0.23481138610839844	0		6.0588564453125	0.6158353271484375	0		-0.26304183959960936	5.864265625	0		
